<?xml version="1.0" encoding="UTF-8"?><svg id="a" xmlns="http://www.w3.org/2000/svg" viewBox="0 0 81.28 75.32"><defs><style>.b{fill:#fedca0;}</style></defs><path class="b" d="M69.04,72.81c-3.28,1.67-6.94,2.51-10.98,2.51H4.92v-13.6H48.75c1.11,0,1.95-.07,2.51-.21,2.16-.42,3.91-1.08,5.23-1.99,2.09-1.46,3.14-3.56,3.14-6.28,0-2.93-1.26-5.3-3.77-7.11-1.12-.7-2.46-1.26-4.03-1.67-1.57-.42-3.5-.63-5.81-.63H23.96l-3.45-.31c-6.07-.84-11-3.19-14.8-7.06C1.9,32.59,0,28.07,0,22.91,0,16.28,2.23,10.88,6.7,6.7,11.44,2.23,17.75,0,25.63,0h50.63V13.6H31.49c-1.05,0-2.34,.38-3.87,1.15-.42,.21-.77,.38-1.05,.52-.14,.07-.49,.35-1.05,.84-2.09,1.6-3.14,3.56-3.14,5.86s1.05,4.36,3.14,6.17c1.39,1.19,2.89,1.92,4.5,2.2l2.51,.31h24.37c7.39,0,13.3,2.02,17.73,6.07,4.43,4.05,6.64,9.31,6.64,15.8,0,.56-.04,1.17-.1,1.83-.07,.66-.1,1.17-.1,1.52-.98,7.6-4.99,13.25-12.03,16.95Z"/></svg>