<?xml version="1.0" encoding="UTF-8"?><svg id="a" xmlns="http://www.w3.org/2000/svg" xmlns:xlink="http://www.w3.org/1999/xlink" viewBox="0 0 81.28 75.32"><defs><style>.c{fill:url(#b);}</style><linearGradient id="b" x1="40.64" y1="35" x2="40.64" y2="116.28" gradientTransform="matrix(1, 0, 0, 1, 0, 0)" gradientUnits="userSpaceOnUse"><stop offset="0" stop-color="#fedca0"/><stop offset=".45" stop-color="#000"/></linearGradient></defs><path class="c" d="M69.04,2.51c-3.28-1.67-6.94-2.51-10.98-2.51H4.92V13.6H48.75c1.11,0,1.95,.07,2.51,.21,2.16,.42,3.91,1.08,5.23,1.99,2.09,1.46,3.14,3.56,3.14,6.28,0,2.93-1.26,5.3-3.77,7.11-1.12,.7-2.46,1.26-4.03,1.67-1.57,.42-3.5,.63-5.81,.63H23.96l-3.45,.31c-6.07,.84-11,3.19-14.8,7.06-3.8,3.87-5.7,8.39-5.7,13.55,0,6.63,2.23,12.03,6.7,16.22,4.74,4.46,11.05,6.7,18.94,6.7h50.63v-13.6H31.49c-1.05,0-2.34-.38-3.87-1.15-.42-.21-.77-.38-1.05-.52-.14-.07-.49-.35-1.05-.84-2.09-1.6-3.14-3.56-3.14-5.86s1.05-4.36,3.14-6.17c1.39-1.19,2.89-1.92,4.5-2.2l2.51-.31h24.37c7.39,0,13.3-2.02,17.73-6.07,4.43-4.05,6.64-9.31,6.64-15.8,0-.56-.04-1.17-.1-1.83-.07-.66-.1-1.17-.1-1.52-.98-7.6-4.99-13.25-12.03-16.95Z"/></svg>