<?xml version="1.0" encoding="UTF-8"?><svg id="a" xmlns="http://www.w3.org/2000/svg" viewBox="0 0 70.3 75.32"><defs><style>.b{fill:#fedca0;}</style></defs><path class="b" d="M33.79,75.32h-3.77c-1.26,0-2.67-.19-4.24-.58-1.57-.39-3.26-.93-5.07-1.63-6.14-2.45-11.12-6.79-14.96-13.03C1.92,53.86,0,46.61,0,38.34c0-3.01,.24-5.88,.73-8.61,1.12-7.07,3.61-13.03,7.48-17.86C12.08,7.04,16.91,3.68,22.7,1.79c2.65-.91,5.09-1.51,7.32-1.79h39.86V13.6h-31.38c-3.35,0-6.09,.52-8.21,1.57-2.13,1.05-4.2,2.89-6.22,5.54-1.4,1.88-2.3,3.84-2.72,5.86-.14,.56-.25,1.34-.31,2.35-.07,1.01-.1,1.83-.1,2.46h49.38v13.39H21.13c0,1.67,.17,3.07,.52,4.18,.63,2.37,1.92,4.71,3.87,7.01,3.49,3.84,7.43,5.75,11.82,5.75h32.95v13.6H33.79Z"/></svg>