<?xml version="1.0" encoding="UTF-8"?><svg id="a" xmlns="http://www.w3.org/2000/svg" viewBox="0 0 69.15 75.32"><defs><style>.b{fill:#fedca0;}</style></defs><path class="b" d="M63.29,69.36c-3.98,3.98-8.82,5.96-14.54,5.96H0V0H49.69c4.53,.63,8.23,2.1,11.09,4.42,4.88,4,7.32,9.12,7.32,15.36,0,3.65-.8,6.89-2.41,9.73-1.61,2.84-3.91,5.21-6.9,7.1l-2.3,1.16,2.2,.94c6.97,3.28,10.46,8.68,10.46,16.22,0,5.72-1.95,10.53-5.86,14.44ZM40.17,13.6H17.37v18.62l23.75-.1c2.09,0,3.9-.84,5.44-2.51,1.53-1.67,2.3-3.77,2.3-6.28,0-.77-.1-1.57-.31-2.41-.49-2.23-1.52-4.01-3.09-5.34-1.57-1.32-3.33-1.99-5.28-1.99Zm1.26,31.17H17.37v16.95h24.58c1.39,0,2.72-.38,3.98-1.15,2.58-1.53,3.87-3.83,3.87-6.9,0-.42-.07-1.05-.21-1.88-.49-2.02-1.5-3.7-3.03-5.02-1.53-1.32-3.24-1.99-5.13-1.99Z"/></svg>